<svg height="511pt" viewBox="0 0 511.99938 511" width="511pt" xmlns="http://www.w3.org/2000/svg"><path d="m468.332031 43.929688c-47.355469-47.355469-124.128906-47.355469-171.484375 0l-253.839844 253.835937c-47.355468 47.355469-47.355468 124.132813 0 171.484375 47.355469 47.355469 124.132813 47.355469 171.484376 0l253.839843-253.835938c47.355469-47.355468 47.355469-124.132812 0-171.484374zm0 0" fill="#485b73"/><path d="m428.136719 126.8125-42.6875-42.6875c-6.722657-6.722656-17.621094-6.722656-24.339844 0l-83.382813 83.378906c-6.71875 6.722656-6.71875 17.621094 0 24.339844l42.6875 42.6875c6.722657 6.722656 17.621094 6.722656 24.34375 0l83.378907-83.378906c6.722656-6.722656 6.722656-17.617188 0-24.339844zm0 0" fill="#bebebf"/><path d="m173.566406 296.007812 42.6875 42.6875c6.722656 6.71875 6.722656 17.617188 0 24.339844l-83.378906 83.378906c-6.722656 6.722657-17.621094 6.722657-24.339844 0l-42.691406-42.6875c-6.71875-6.71875-6.71875-17.617187 0-24.339843l83.382812-83.378907c6.71875-6.722656 17.617188-6.722656 24.339844 0zm0 0" fill="#bebebf"/><path d="m307.460938 60.515625-30.863282 30.863281 34.949219 34.953125c4.417969 4.414063 5.351563 11.265625 2.1875 16.648438-9.140625 15.550781-7.035156 35.882812 6.3125 49.234375 13.347656 13.347656 33.683594 15.449218 49.234375 6.3125 5.382812-3.164063 12.234375-2.230469 16.648438 2.183594l34.953124 34.953124 30.863282-30.863281zm0 0" fill="#dadadc"/><path d="m239.863281 416.683594-30.863281 30.863281-34.953125-34.953125c-4.414063-4.414062-11.265625-5.347656-16.648437-2.183594-15.550782 9.136719-35.882813 7.035156-49.234376-6.316406-13.347656-13.347656-15.449218-33.679688-6.3125-49.230469 3.164063-5.382812 2.230469-12.234375-2.183593-16.652343l-34.953125-34.949219 30.863281-30.863281zm0 0" fill="#dadadc"/><path d="m362.722656 163.519531c0 7.722657-6.261718 13.980469-13.980468 13.980469-7.722657 0-13.980469-6.257812-13.980469-13.980469 0-7.71875 6.257812-13.980469 13.980469-13.980469 7.71875 0 13.980468 6.261719 13.980468 13.980469zm0 0" fill="#bebebf"/><path d="m493.980469 189.761719c-14.03125-14.03125-36.785157-14.03125-50.820313 0l-37.316406 37.316406c-14.03125 14.035156-14.03125 36.789063 0 50.820313 14.035156 14.035156 36.789062 14.035156 50.824219 0l37.3125-37.3125c14.035156-14.035157 14.035156-36.789063 0-50.824219zm0 0" fill="#ff66a8"/><path d="m322.496094 18.277344c14.035156 14.035156 14.035156 36.789062 0 50.824218l-37.3125 37.3125c-14.035156 14.035157-36.789063 14.035157-50.824219 0-14.03125-14.03125-14.03125-36.785156 0-50.820312l37.316406-37.316406c14.035157-14.03125 36.789063-14.03125 50.820313 0zm0 0" fill="#ff66a8"/><path d="m150.835938 375.402344c0 7.722656-6.257813 13.980468-13.980469 13.980468-7.71875 0-13.976563-6.257812-13.976563-13.980468 0-7.71875 6.257813-13.980469 13.976563-13.980469 7.722656 0 13.980469 6.261719 13.980469 13.980469zm0 0" fill="#bebebf"/><path d="m110.613281 230.160156c14.035157 14.035156 14.035157 36.789063 0 50.824219l-37.3125 37.3125c-14.035156 14.035156-36.789062 14.035156-50.824219 0-14.03125-14.03125-14.03125-36.785156 0-50.820313l37.316407-37.316406c14.035156-14.03125 36.789062-14.03125 50.820312 0zm0 0" fill="#ff66a8"/><path d="m282.101562 401.644531c-14.035156-14.03125-36.789062-14.03125-50.824218 0l-37.3125 37.316407c-14.035156 14.035156-14.035156 36.789062 0 50.820312 14.03125 14.035156 36.785156 14.035156 50.820312 0l37.316406-37.3125c14.03125-14.035156 14.03125-36.789062 0-50.824219zm0 0" fill="#ff66a8"/><path d="m348.730469 142.285156c-5.734375 0-11.128907 2.234375-15.1875 6.292969-8.375 8.375-8.375 22.003906 0 30.378906 8.28125 8.28125 22.105469 8.273438 30.378906 0 8.375-8.375 8.375-22.003906 0-30.378906-4.058594-4.058594-9.453125-6.292969-15.191406-6.292969zm4.585937 26.0625c-2.5 2.5-6.671875 2.496094-9.167968 0-2.523438-2.523437-2.523438-6.636718 0-9.164062 2.5-2.5 6.667968-2.496094 9.167968 0 2.5 2.5 2.496094 6.667968 0 9.164062zm0 0"/><path d="m136.847656 354.171875c-5.734375 0-11.128906 2.230469-15.1875 6.289063-8.375 8.375-8.375 22.003906 0 30.378906 8.277344 8.277344 22.109375 8.269531 30.378906 0 8.375-8.375 8.375-22.003906 0-30.378906-4.058593-4.058594-9.453124-6.289063-15.191406-6.289063zm4.582032 26.058594c-2.5 2.503906-6.664063 2.5-9.164063.003906-2.496094-2.496094-2.492187-6.671875 0-9.164063 2.449219-2.449218 6.648437-2.519531 9.167969 0 2.523437 2.523438 2.523437 6.636719-.003906 9.160157zm0 0"/><path d="m204.769531 217.523438c1.917969.003906 3.851563-.703126 5.304688-2.15625l8.835937-8.839844c2.929688-2.925782 2.929688-7.675782 0-10.605469-2.929687-2.929687-7.675781-2.929687-10.605468 0l-8.839844 8.839844c-2.925782 2.929687-2.925782 7.675781 0 10.605469 1.417968 1.417968 3.355468 2.152343 5.304687 2.15625zm0 0"/><path d="m302.433594 315.183594c1.921875.003906 3.855468-.699219 5.304687-2.148438l8.839844-8.839844c2.929687-2.929687 2.929687-7.675781 0-10.605468-2.929687-2.929688-7.679687-2.929688-10.605469 0l-8.839844 8.839844c-2.929687 2.929687-2.929687 7.675781 0 10.605468 1.417969 1.414063 3.355469 2.144532 5.300782 2.148438zm0 0"/><path d="m264.847656 277.882812c4.726563 0 9.261719-2.726562 8.90625-8.050781-.277344-4.128906-3.851562-7.253906-7.988281-6.980469-4.179687.285157-8.410156-1.375-11.578125-4.539062-3.167969-3.167969-4.820312-7.386719-4.539062-11.578125.277343-4.132813-2.847657-7.710937-6.980469-7.988281-4.144531-.289063-7.710938 2.847656-7.988281 6.980468-.570313 8.511719 2.671874 16.964844 8.902343 23.191407 5.757813 5.757812 13.414063 8.964843 21.265625 8.964843zm0 0"/><path d="m54.480469 225.105469-37.3125 37.316406c-16.40625 16.402344-16.921875 42.777344-1.539063 59.808594-12.546875 23.085937-17.800781 49.898437-14.808594 76.183593 3.320313 29.171876 16.074219 55.585938 36.878907 76.386719 19.339843 19.34375 43.804687 31.828125 70.75 36.101563.398437.0625.792969.09375 1.183593.09375 3.625 0 6.8125-2.632813 7.398438-6.324219.652344-4.089844-2.140625-7.933594-6.230469-8.582031-23.796875-3.777344-45.410156-14.808594-62.496093-31.894532-35.339844-35.335937-43.359376-88.855468-20.683594-132.613281 14.066406 7.476563 31.089844 6.605469 44.339844-2.28125.007812-.003906.015624-.011719.023437-.015625 1.574219-1.023437 3.046875-2.199218 4.457031-3.433594l16.285156 16.28125-32.195312 32.195313c-9.632812 9.636719-9.632812 25.3125 0 34.949219 0 0 42.652344 42.652344 42.6875 42.6875 9.523438 9.523437 25.433594 9.515625 34.949219 0l32.195312-32.195313 16.285157 16.285157c-1.242188 1.417968-2.402344 2.914062-3.449219 4.480468-8.886719 13.25-9.757813 30.269532-2.289063 44.332032-12.988281 6.6875-27.347656 10.871093-41.953125 12.183593-4.125.367188-7.171875 4.011719-6.800781 8.140625.347656 3.894532 3.621094 6.828125 7.460938 6.828125.222656 0 .449218-.007812.679687-.027343 17.46875-1.570313 34.617187-6.777344 49.972656-15.121094 7.996094 7.226562 18.238281 11.183594 29.09375 11.183594 11.605469 0 22.511719-4.515626 30.714844-12.722657l37.316406-37.3125c15.125-15.128906 16.730469-38.722656 4.835938-55.660156l114.070312-114.070313c7.253907 5.117188 15.886719 7.882813 24.945313 7.882813 11.605468 0 22.511718-4.519531 30.714844-12.722656l37.316406-37.3125c8.203125-8.207031 12.722656-19.113281 12.722656-30.714844s-4.519531-22.511719-12.722656-30.714844c-.039063-.035156-.078125-.070312-.113282-.105469 10.554688-22.570312 14.417969-48.273437 10.863282-73.0625-3.972656-27.699218-16.558594-52.828124-36.402344-72.667968-14.996094-14.996094-33.613281-26.140625-53.828125-32.226563-3.96875-1.195312-8.152344 1.054688-9.34375 5.019531-1.195313 3.96875 1.054687 8.152344 5.019531 9.34375 17.851563 5.375 34.292969 15.21875 47.546875 28.472657 17.53125 17.527343 28.648438 39.726562 32.160157 64.191406 3.019531 21.0625-.007813 42.875-8.527344 62.242187-5.605469-2.566406-11.742188-3.929687-18.089844-3.929687-9.859375 0-19.207031 3.273437-26.832031 9.289063-.589844.460937-1.164063.941406-1.730469 1.433593l-16.285156-16.285156 9.71875-9.71875c9.632812-9.632813 9.632812-25.3125 0-34.945313 0 0-42.660156-42.660156-42.691406-42.691406-9.519532-9.519531-25.441407-9.503906-34.945313 0l-9.71875 9.71875-16.285156-16.289062c.171875-.195313.34375-.390625.511719-.59375.273437-.328125.546874-.65625.8125-.992188.042968-.054687.082031-.109375.125-.164062 6.003906-7.617188 9.269531-16.960938 9.269531-26.808594 0-6.351562-1.359375-12.488281-3.929688-18.09375 15.851563-6.996094 33.242188-10.289062 50.742188-9.5625 4.136719.171875 7.632812-3.046875 7.804687-7.183594.167969-4.140625-3.046875-7.632812-7.183594-7.804687-20.777343-.859375-41.402343 3.300781-60.046874 12.039062-.035157-.035156-.070313-.074219-.105469-.109375-8.207031-8.203125-19.113281-12.722656-30.714844-12.722656s-22.507813 4.519531-30.714844 12.722656l-37.3125 37.316406c-8.207031 8.203126-12.722656 19.109376-12.722656 30.710938 0 9.0625 2.765625 17.691406 7.878906 24.949219l-114.0625 114.066406c-7.257812-5.117187-15.886719-7.882813-24.949219-7.882813-11.601562 0-22.511718 4.519532-30.714843 12.722657zm-26.707031 47.921875s37.292968-37.292969 37.316406-37.316406c10.949218-10.949219 29.277344-10.933594 40.210937 0 10.785157 10.78125 10.78125 29.433593 0 40.214843 0 0-37.308593 37.308594-37.3125 37.316407-10.160156 10.15625-27.066406 11.011718-38.175781 1.847656-.007812-.007813-.019531-.015625-.03125-.023438-12.804688-10.453125-13.644531-30.402344-2.007812-42.039062zm99.789062 168.332031c-3.753906 3.753906-9.984375 3.75-13.734375 0l-42.6875-42.6875c-3.789063-3.785156-3.789063-9.949219 0-13.734375l18.503906-18.507812c-.015625.09375-.027343.1875-.042969.277343-2.910156 15.414063 2.160157 31.847657 13.25 42.9375 11.121094 11.121094 27.808594 16.203125 43.234376 13.191407 0 0-18.507813 18.507812-18.523438 18.523437zm36.707031-40.074219c-5.21875 0-8.996093 2.285156-13.558593 4.390625-12.433594 5.734375-27.5625 3.050781-37.25-6.636719-10.507813-10.503906-12.675782-27.328124-5.144532-40.144531 4.8125-8.1875 3.34375-19.039062-3.355468-25.738281l-17.835938-17.835938 20.253906-20.257812 110.058594 110.058594-20.257812 20.253906-17.835938-17.835938c-4.03125-4.03125-9.382812-6.253906-15.074219-6.253906zm36.957031-33.589844-56.421874-56.421874s9.699218-9.699219 9.714843-9.71875c3.75-3.746094 9.992188-3.742188 13.734375 0 0 0 42.605469 42.605468 42.6875 42.691406 3.75 3.75 3.746094 9.988281 0 13.734375zm75.5625 79.714844-37.316406 37.316406c-10.960937 10.960938-29.261718 10.953126-40.214844 0-10.703124-10.703124-10.71875-29.496093 0-40.214843 0 0 37.308594-37.304688 37.316407-37.3125 10.957031-10.960938 29.273437-10.941407 40.214843 0 11.085938 11.085937 11.085938 29.125 0 40.210937zm81.179688-236.457031s-18.507812 18.507813-18.523438 18.523437c-3.746093 3.746094-9.992187 3.742188-13.734374 0 0 0-42.660157-42.660156-42.6875-42.6875-3.746094-3.746093-3.742188-9.996093 0-13.734374l18.507812-18.507813c-.019531.097656-.03125.195313-.050781.292969-2.894531 15.414062 2.15625 31.824218 13.257812 42.921875 11.074219 11.074219 27.84375 16.195312 43.230469 13.191406zm18.183594-21.550781c-4.925782 0-8.6875 2.039062-12.972656 4.121094-12.558594 6.097656-27.972657 3.496093-37.835938-6.367188-10.53125-10.53125-12.695312-27.292969-5.152344-40.128906 4.816406-8.195313 3.363282-19.042969-3.347656-25.753906l-17.835938-17.835938 20.253907-20.257812 110.058593 110.058593-20.257812 20.253907-17.835938-17.835938c-4.03125-4.03125-9.386718-6.253906-15.074218-6.253906zm112.519531 46.125s-37.296875 37.296875-37.316406 37.316406c-10.957031 10.957031-29.269531 10.945312-40.214844 0-10.960937-10.960938-10.953125-29.261719 0-40.214844 0 0 37.316406-37.316406 37.316406-37.316406 10.800781-10.800781 29.398438-10.8125 40.214844 0 10.960937 10.964844 10.953125 29.261719 0 40.214844zm-131.984375-136.136719s9.707031-9.707031 9.714844-9.71875c3.75-3.746094 9.992187-3.742187 13.734375 0l42.6875 42.691406c3.789062 3.785157 3.789062 9.945313 0 13.734375l-9.714844 9.714844zm-117.03125-38.246094s37.304688-37.304687 37.316406-37.316406c10.953125-10.953125 29.269532-10.941406 40.214844 0 10.769531 10.773437 10.753906 29.4375 0 40.214844 0 0-37.292969 37.289062-37.316406 37.316406-10.9375 10.9375-29.300782 10.910156-40.21875-.003906-11.082032-11.089844-11.082032-29.125.003906-40.210938zm-4.851562 55.671875c16.152343 11.375 38.675781 10.144532 53.519531-2.851562l16.285156 16.289062s-32.164063 32.164063-32.195313 32.195313c-9.519531 9.519531-9.511718 25.4375 0 34.945312 0 0 42.648438 42.648438 42.6875 42.6875 9.53125 9.53125 25.429688 9.523438 34.949219 0l32.195313-32.191406 16.289062 16.285156c-.359375-.015625-1.738281 2.101563-1.988281 2.433594-11.050781 14.609375-11.460937 35.824219-1.007813 50.855469.050782.074218.097657.148437.148438.222656l-114.050781 114.050781c-.179688-.125-.363281-.246093-.546875-.371093-16.101563-10.976563-38.3125-9.605469-52.96875 3.222656l-16.289063-16.285156s9.710938-9.710938 9.71875-9.71875c9.523438-9.527344 9.515625-25.433594 0-34.949219 0 0-42.664062-42.664063-42.6875-42.6875-9.527343-9.523438-25.433593-9.515625-34.949219 0l-9.714843 9.71875-16.289063-16.289063c7.5625-8.65625 11.394532-20.335937 10.578125-31.792968-.554687-7.746094-3.269531-15.363282-7.730469-21.71875zm0 0"/></svg>