<svg height="512" viewBox="0 0 512 512" width="512" xmlns="http://www.w3.org/2000/svg"><g id="Filled_outline" data-name="Filled outline"><rect fill="#fcac1f" height="96" rx="48" transform="matrix(.978 .21 -.21 .978 91.93 -35.57)" width="336" x="45.33" y="366.772"/><path d="m111.04 347.401h32v24h-32z" fill="#f35244" transform="matrix(.978 .21 -.21 .978 78.366 -18.672)"/><path d="m95.909 417.793h32v24h-32z" fill="#f35244" transform="matrix(.978 .21 -.21 .978 92.821 -13.92)"/><path d="m122.252 419.742-15.643-3.362 10.087-46.928 15.643 3.362 20.102 20.687-3.363 15.642z" fill="#4d5e78"/><path d="m291.442 459.824h32v24h-32z" fill="#f35244" transform="matrix(-.978 -.21 .21 -.978 508.864 997.721)"/><path d="m306.573 389.432h32v24h-32z" fill="#f35244" transform="matrix(-.978 -.21 .21 -.978 553.581 861.688)"/><path d="m312.23 411.482 15.643 3.363-10.088 46.928-15.642-3.363-20.102-20.686 3.363-15.643z" fill="#4d5e78"/><path d="m292 392-36 16-14.929 14.929a12.828 12.828 0 0 0 0 18.142 12.83 12.83 0 0 0 15.437 2.068l47.492-27.139z" fill="#d6d6d4"/><path d="m292 392-20-40 21.458-25.749a80 80 0 0 0 18.542-51.215v-19.036h-168a24 24 0 0 0 -24 24v88h48v-64h80l-21.372 26.715a24 24 0 0 0 -1.611 27.712l30.983 49.573z" fill="#4d5e78"/><path d="m120 368-21.791 5.448a13.477 13.477 0 0 0 -10.209 13.075 13.477 13.477 0 0 0 13.477 13.477h66.523v-32z" fill="#d6d6d4"/><path d="m464 224-32 16-43.56-49.78-12.44-14.22h-32v-48h36a24.012 24.012 0 0 1 19.2 9.6l1.8 2.4z" fill="#fec9a3"/><path d="m344 128v48h-32v80h-104v-80h-40v-48z" fill="#f35244"/><path d="m344 128v48h-32v80h-104v-31.7a466.837 466.837 0 0 0 123.52-96.3z" fill="#e64c3f"/><path d="m168 128v48h-50.22a24.005 24.005 0 0 1 -20.73-11.91l-4.88-8.37-44.17-75.72 32-8 36.71 42.82 11.29 13.18z" fill="#fec9a3"/><g fill="#3b495e"><path d="m48 80-24-40 32-16 16 16 8 32z"/><path d="m432 240 24 24 24 8 8-32-16-8-8-8z"/><path d="m401 140-12.56 50.22-12.44-14.22h-12l12-48h4a24.012 24.012 0 0 1 19.2 9.6z"/></g><ellipse cx="388" cy="132" fill="#4d5e78" rx="17.668" ry="22.085" transform="matrix(.707 -.707 .707 .707 20.304 313.019)"/><path d="m144.73 128-21.82 48h-5.13a24.005 24.005 0 0 1 -20.73-11.91l-4.88-8.37 24.54-40.9 11.29 13.18z" fill="#3b495e"/><ellipse cx="108" cy="164" fill="#4d5e78" rx="17.668" ry="22.085" transform="matrix(.707 -.707 .707 .707 -84.333 124.402)"/><path d="m288 80h-80v40a24 24 0 0 0 24 24h32a24 24 0 0 0 24-24z" fill="#fec9a3"/><path d="m288 72v8h-96v-8a48 48 0 0 1 71.2-42.02 46.02 46.02 0 0 1 5.03 3.2 47.448 47.448 0 0 1 5.71 4.88 48.3 48.3 0 0 1 5.96 7.25 47.728 47.728 0 0 1 8.1 26.69z" fill="#4d5e78"/><path d="m288 72v8h-87.73a462.662 462.662 0 0 0 62.93-50.02 46.02 46.02 0 0 1 5.03 3.2 47.448 47.448 0 0 1 5.71 4.88 48.3 48.3 0 0 1 5.96 7.25 47.728 47.728 0 0 1 8.1 26.69z" fill="#485870"/><path d="m81.025 152.5c-2.739 9.559.336 21.166 8.825 29.655a32.358 32.358 0 0 0 22.572 9.8 23.476 23.476 0 0 0 16.852-6.678c.411-.41.795-.838 1.167-1.273h69.559v48h16v-56.004a8 8 0 0 0 -8-8h-32v-32h10.5v-16h-54.819l-44.381-51.773-7.539-30.167a7.994 7.994 0 0 0 -2.1-3.717l-16-16a8 8 0 0 0 -9.235-1.5l-32 16a8 8 0 0 0 -3.286 11.273zm-3.88-71.54 29.736 34.693-13.509 22.512q-.862.386-1.691.843l-31.401-53.832zm40.816 93c-3.708 3.7-11.4 2.275-16.8-3.124s-6.83-13.091-3.125-16.8a7.666 7.666 0 0 1 5.553-2.063c3.626 0 7.881 1.823 11.244 5.187 5.402 5.402 6.833 13.095 3.128 16.8zm42.039-5.96h-24.059q-.009-.611-.046-1.225l13.987-30.775h10.118zm-27.693-32-5.019 11.043c-.369-.4-.746-.8-1.138-1.193a33.841 33.841 0 0 0 -13.689-8.4l5.395-8.991 4.069 4.746a8 8 0 0 0 6.075 2.795zm-77.887-102.266 10.356 10.356 5.524 22.089-18.489 4.621-16.506-27.508z"/><path d="m491.578 232.845-14.839-7.42-6.685-6.686-55.48-73.97c3.4-9.784.443-22.052-8.424-30.919-11.731-11.73-29.418-13.132-39.424-3.123a22.372 22.372 0 0 0 -5.549 9.273h-65.177v-48a56 56 0 0 0 -112 0v8a8 8 0 0 0 8 8h8v32a32.036 32.036 0 0 0 32 32h32a32.012 32.012 0 0 0 27.7-16h44.3v32h-24a8 8 0 0 0 -8 8v72h-160a32.036 32.036 0 0 0 -32 32v81.754l-15.731 3.934a21.461 21.461 0 0 0 -.369 41.552 7.975 7.975 0 0 0 -4.934 5.777l-3.366 15.643a40 40 0 0 1 -30.7-47.51 40.179 40.179 0 0 1 39.049-31.6v-16a56.262 56.262 0 0 0 -54.691 44.238 56 56 0 0 0 42.982 66.512l234.639 50.439a55.96 55.96 0 0 0 66.522-42.98 56 56 0 0 0 -42.981-66.523l-50.259-10.8-10.661-21.336 18.1-21.728a88.163 88.163 0 0 0 20.4-56.336v-91.036h52.369l53.61 61.269c.065.073.137.136.2.207s.1.124.161.181l24 24a8.025 8.025 0 0 0 3.127 1.933l24 8a8 8 0 0 0 10.291-5.65l8-32a8 8 0 0 0 -4.18-9.095zm-240.264-144.845h20.686l-8.865 11.82zm8.386-50.793-7.275 3.638 7.156 14.31 12.903-6.455a39.772 39.772 0 0 1 7.516 23.3h-80a39.751 39.751 0 0 1 6.279-21.474l15.191 5.064 5.06-15.18-7.453-2.484a39.88 39.88 0 0 1 40.62-.719zm-43.7 82.793v-32h12.686l24.751 24.751-17.437 23.249h-4a16.019 16.019 0 0 1 -16-16zm48 16h-8l14.4-19.2 9.6-12.8v16a16.019 16.019 0 0 1 -16 16zm-163.851 245.209 20.836-5.209h39.015v16h-58.522a5.477 5.477 0 0 1 -1.329-10.791zm115.7-23.177-39.849-8.565v-37.467h55.354l-10.973 13.718a32.045 32.045 0 0 0 -4.536 32.314zm-110.921 66.168 15.642 3.362-1.68 7.822-15.643-3.363zm16.634-12.791-5.45-1.171.482-2.239h13.6zm16.338 11.696a8.041 8.041 0 0 0 .143-1l13.982-5.524a8 8 0 0 0 4.882-5.763l.605-2.817h10.488a8 8 0 0 0 8-8v-34.169l51.073 10.979 18.77 30.032-10.429 10.428a20.833 20.833 0 0 0 25.063 32.814l14.636-8.364a7.994 7.994 0 0 0 1.189 1.573l10.477 10.786a8.24 8.24 0 0 0 -.279.968l-3.363 15.644-148.6-31.944zm122.711-8.4 27.658-12.293 5.2 10.394-40.921 23.383a4.828 4.828 0 0 1 -5.81-7.606zm68.948-7.688-15.638-3.36 1.681-7.819 15.642 3.362zm-13.459 62.583-1.681 7.82-15.643-3.362 1.681-7.821zm-4.456-17.326-5.46-1.172-15.426-15.88.6-2.78 16.609-9.491a7.972 7.972 0 0 0 2.418-2.136l2.527-1 5.455 1.173zm52.6-33.989a39.752 39.752 0 0 1 5.51 30.119 40.185 40.185 0 0 1 -39.054 31.596c-.155 0-.31-.011-.465-.012l3.193-14.853a8 8 0 0 0 -6.137-9.5l6.721-31.287a8 8 0 0 0 9.5-6.141l3.194-14.865a39.707 39.707 0 0 1 17.543 14.938zm-60.244-143.249a72.14 72.14 0 0 1 -16.688 46.094l-21.458 25.749a8 8 0 0 0 -1.009 8.7l16.255 32.511-11 4.889-11 4.888-27.3-43.679a16.017 16.017 0 0 1 1.073-18.475l21.374-26.713a8 8 0 0 0 -6.247-13h-80a8 8 0 0 0 -8 8v56h-32v-80a16.019 16.019 0 0 1 16-16h160zm129.95-44.956-36.733-41.98 7.468-29.85 47.163 62.882-8.949 4.475zm-51.929-59.348a8 8 0 0 0 -6.021-2.732h-1.754l3.046-12.183a31.83 31.83 0 0 0 10.568 3.76l-3.468 13.864zm-3.982-48.692a7.666 7.666 0 0 1 5.553-2.063c3.626 0 7.881 1.823 11.244 5.187 5.4 5.4 6.83 13.091 3.125 16.8s-11.4 2.275-16.8-3.124-6.827-13.095-3.122-16.8zm-26.039 13.96h9.313a32.522 32.522 0 0 0 2.8 6.58l-6.359 25.42h-5.754zm122.334 125.679-14.013-4.671-14.816-14.816 16.915-8.458 3.923 3.923a7.986 7.986 0 0 0 2.079 1.5l10.261 5.13z"/></g></svg>