<?xml version="1.0" encoding="iso-8859-1"?>
<!-- Generator: Adobe Illustrator 19.0.0, SVG Export Plug-In . SVG Version: 6.00 Build 0)  -->
<svg version="1.1" id="Capa_1" xmlns="http://www.w3.org/2000/svg" xmlns:xlink="http://www.w3.org/1999/xlink" x="0px" y="0px"
	 viewBox="0 0 512.001 512.001" style="enable-background:new 0 0 512.001 512.001;" xml:space="preserve">
<g>
	<g>
		<g>
			<rect x="117.912" y="79.5" width="15" height="15"/>
			<rect x="142.912" y="79.5" width="56.939" height="15"/>
			<rect x="92.912" y="79.5" width="15" height="15"/>
			<rect x="92.912" y="162.5" width="28.18" height="15"/>
			<rect x="156.082" y="162.5" width="15" height="15"/>
			<rect x="131.082" y="162.5" width="15" height="15"/>
			<rect x="68.082" y="121" width="103" height="15"/>
			<path d="M307.733,53.669l13.428-6.686c-2.713-5.449-6.468-10.19-11.159-14.094l-9.594,11.531
				C303.489,46.984,305.954,50.096,307.733,53.669z"/>
			<path d="M299.772,26.541c-5.56-2.46-11.482-3.708-17.604-3.708v15c4.018,0,7.897,0.815,11.533,2.425L299.772,26.541z"/>
			<path d="M310.709,66.373c0,10.054-5.386,19.479-14.057,24.599l7.627,12.916c13.218-7.804,21.43-22.179,21.43-37.512
				c0.001-2.669-0.243-5.348-0.727-7.962l-14.75,2.729C310.55,62.856,310.71,64.615,310.709,66.373z"/>
			<rect x="303.582" y="205.95" width="15" height="47.39"/>
			<rect x="303.582" y="180.95" width="15" height="15"/>
			<rect x="303.582" y="155.95" width="15" height="15"/>
			<path d="M187.614,438.547l104.455-104.455l38.259,38.279v53.677h15V366.16l-82.618-82.662
				c13.55-5.149,23.209-18.264,23.209-33.598V132.746h26.447l14.244,14.245l0.004,22.108l0.018,109.168l-16.413,16.417
				l60.824,60.822v70.541h15v-76.754l-54.611-54.611l10.202-10.204l-0.011-64.99l60.494,60.494l39.398-39.399L338.824,137.992
				l-17.833-17.833c16.674-12.069,27.551-31.675,27.551-53.785c0-36.6-29.775-66.374-66.373-66.374s-66.374,29.774-66.374,66.373
				c0,20.688,9.518,39.191,24.401,51.373h-16.484c-21.299,0-38.626,17.328-38.626,38.627v21.973l-62.261,62.239l39.397,39.397
				l22.864-22.864v11.738l16.977,16.977h27.922v-15h-21.709l-8.189-8.189v-20.525l42.399-42.399v86.113h1.352l8.848,8.852
				L144.159,403.21l39.396,39.396l1.03-1.03v18.448l19.143,19.144h17.671c-1.112,2.757-1.731,5.765-1.731,8.916
				c0,13.188,10.729,23.917,23.917,23.917s23.917-10.729,23.917-23.917c0-3.151-0.618-6.159-1.731-8.916h96.961
				c-1.112,2.757-1.731,5.765-1.731,8.916c0.001,13.187,10.73,23.916,23.918,23.916s23.916-10.729,23.916-23.917
				c0-3.151-0.618-6.159-1.731-8.916h17.672l19.143-19.143v-21.477H187.614z M420.296,240.589l-18.18,18.181l-60.498-60.498
				l-0.005-25.815l-0.002-10.476L420.296,240.589z M270.919,249.899c0,8.901-5.584,16.523-13.435,19.545V230.5h13.435V249.899z
				 M270.919,215.5h-13.435v-82.754h13.435V215.5z M200.084,156.373h0.001c0-13.028,10.599-23.627,23.626-23.627h6.99
				l-30.617,30.606V156.373z M242.484,178.506l-80.263,80.264l-18.182-18.183l98.445-98.409V178.506z M230.795,66.373
				c0-28.327,23.047-51.373,51.374-51.373c28.327,0,51.373,23.046,51.373,51.373c0,28.327-23.046,51.373-51.373,51.373
				C253.842,117.746,230.795,94.7,230.795,66.373z M183.555,421.393l-18.183-18.183l97.897-97.897l18.183,18.184L183.555,421.393z
				 M243.585,497c-4.917,0-8.917-4-8.917-8.917c0-4.916,4-8.916,8.917-8.916s8.917,4,8.917,8.916
				C252.502,493,248.502,497,243.585,497z M384.919,497c-4.917,0-8.917-4-8.917-8.917c0-4.916,4-8.916,8.917-8.916
				c4.916,0,8.916,4,8.916,8.916C393.835,493,389.835,497,384.919,497z M428.919,453.811l-10.356,10.356H209.942l-10.356-10.356
				v-0.263h229.333V453.811z"/>
		</g>
	</g>
</g>
<g>
</g>
<g>
</g>
<g>
</g>
<g>
</g>
<g>
</g>
<g>
</g>
<g>
</g>
<g>
</g>
<g>
</g>
<g>
</g>
<g>
</g>
<g>
</g>
<g>
</g>
<g>
</g>
<g>
</g>
</svg>
